# xmcd
#
# Track frame offsets:
#	150
#	11547
#	24908
#	38269
#	48037
#	58966
#	69006
#	86952
#	99145
#	113873
#	124629
#	136957
#
# Disc length: 2049 seconds
# Revision: 0
# Processed by: cddbd v1.5.2PL0 Copyright (c) Steve Scherf et al.
# Submitted via: dBpowerAMP V12.0
#
DISCID=8807ff0c
DTITLE=Nothin' Fancy - Lord Bless This House
DYEAR=2008
DGENRE=BLuegrass
TTITLE0=Let Your Light Shine Down
TTITLE1=Lord Bless This House
TTITLE2=Gone Home
TTITLE3=Bells Of Saint Mary
TTITLE4=God's Heavenly Shore
TTITLE5=Lord I Hear Yor Call
TTITLE6=Heart That Will Never Break Again
TTITLE7=Soul Of Man Never Dies
TTITLE8=House Of Gold
TTITLE9=Let Me Catch A Fish
TTITLE10=Lean On Me
TTITLE11=Peace In The Valley
EXTD=
EXTT0=
EXTT1=
EXTT2=
EXTT3=
EXTT4=
EXTT5=
EXTT6=
EXTT7=
EXTT8=
EXTT9=
EXTT10=
EXTT11=
PLAYORDER=
